<mxfile host="65bd71144e">
    <diagram name="Page-1" id="74e2e168-ea6b-b213-b513-2b3c1d86103e">
        <mxGraphModel dx="1361" dy="1020" grid="1" gridSize="10" guides="1" tooltips="1" connect="1" arrows="1" fold="1" page="1" pageScale="1" pageWidth="1100" pageHeight="850" background="none" math="0" shadow="0">
            <root>
                <mxCell id="0"/>
                <mxCell id="1" parent="0"/>
                <mxCell id="77e6c97f196da883-1" value="&lt;font style=&quot;font-size: 14px;&quot;&gt;LOGUIN USAUARIO&lt;/font&gt;" style="swimlane;html=1;childLayout=stackLayout;startSize=20;rounded=0;shadow=0;labelBackgroundColor=none;strokeWidth=1;fontFamily=Verdana;fontSize=8;align=center;" parent="1" vertex="1">
                    <mxGeometry x="70" y="20" width="1010" height="580" as="geometry"/>
                </mxCell>
                <mxCell id="77e6c97f196da883-2" value="USUARIO" style="swimlane;html=1;startSize=20;" parent="77e6c97f196da883-1" vertex="1">
                    <mxGeometry y="20" width="180" height="560" as="geometry"/>
                </mxCell>
                <mxCell id="77e6c97f196da883-8" value="USUARIO ENTRA EN LA WEB" style="rounded=1;whiteSpace=wrap;html=1;shadow=0;labelBackgroundColor=none;strokeWidth=1;fontFamily=Verdana;fontSize=8;align=center;" parent="77e6c97f196da883-2" vertex="1">
                    <mxGeometry x="20" y="40" width="100" height="60" as="geometry"/>
                </mxCell>
                <mxCell id="HAU2dzA1IoQsF7gN91ns-19" value="USUARIO RECIBE NUEVA PANTALLA CON OPCIONES DE LOGUEO Y NOTIFICACION DE LOGUIN FALLIDO" style="rounded=1;whiteSpace=wrap;html=1;shadow=0;labelBackgroundColor=none;strokeWidth=1;fontFamily=Verdana;fontSize=8;align=center;" parent="77e6c97f196da883-2" vertex="1">
                    <mxGeometry x="20" y="490" width="100" height="60" as="geometry"/>
                </mxCell>
                <mxCell id="77e6c97f196da883-28" style="edgeStyle=orthogonalEdgeStyle;rounded=1;html=1;labelBackgroundColor=none;startArrow=none;startFill=0;startSize=5;endArrow=classicThin;endFill=1;endSize=5;jettySize=auto;orthogonalLoop=1;strokeWidth=1;fontFamily=Verdana;fontSize=8" parent="77e6c97f196da883-1" source="77e6c97f196da883-9" target="77e6c97f196da883-12" edge="1">
                    <mxGeometry relative="1" as="geometry"/>
                </mxCell>
                <mxCell id="77e6c97f196da883-33" style="edgeStyle=orthogonalEdgeStyle;rounded=1;html=1;labelBackgroundColor=none;startArrow=none;startFill=0;startSize=5;endArrow=classicThin;endFill=1;endSize=5;jettySize=auto;orthogonalLoop=1;strokeWidth=1;fontFamily=Verdana;fontSize=8" parent="77e6c97f196da883-1" source="77e6c97f196da883-13" target="77e6c97f196da883-15" edge="1">
                    <mxGeometry relative="1" as="geometry"/>
                </mxCell>
                <mxCell id="77e6c97f196da883-3" value="PANTALLA AUTENTICACION" style="swimlane;html=1;startSize=20;" parent="77e6c97f196da883-1" vertex="1">
                    <mxGeometry x="180" y="20" width="190" height="560" as="geometry"/>
                </mxCell>
                <mxCell id="77e6c97f196da883-9" value="RELLENA CAMPO DE LOGIN INTRODUCIENDO EMAIL / NICK Y CONTRASEÑA" style="rounded=1;whiteSpace=wrap;html=1;shadow=0;labelBackgroundColor=none;strokeWidth=1;fontFamily=Verdana;fontSize=8;align=center;" parent="77e6c97f196da883-3" vertex="1">
                    <mxGeometry x="45" y="40" width="100" height="60" as="geometry"/>
                </mxCell>
                <mxCell id="HAU2dzA1IoQsF7gN91ns-15" value="PRESENTA OPCION DE LOGUEO NUEVO, DE OLVIDO DE CONTRASEÑA Y DE REGISTER" style="rounded=1;whiteSpace=wrap;html=1;shadow=0;labelBackgroundColor=none;strokeWidth=1;fontFamily=Verdana;fontSize=8;align=center;" parent="77e6c97f196da883-3" vertex="1">
                    <mxGeometry x="45" y="490" width="100" height="60" as="geometry"/>
                </mxCell>
                <mxCell id="77e6c97f196da883-4" value="SISTEMA AUTENTICACION (API)" style="swimlane;html=1;startSize=20;" parent="77e6c97f196da883-1" vertex="1">
                    <mxGeometry x="370" y="20" width="250" height="560" as="geometry"/>
                </mxCell>
                <mxCell id="77e6c97f196da883-12" value="SISTEMA RECIBE CREDENCIALES Y SOLICITA A VERIFICACION A BBDD" style="rounded=1;whiteSpace=wrap;html=1;shadow=0;labelBackgroundColor=none;strokeWidth=1;fontFamily=Verdana;fontSize=8;align=center;" parent="77e6c97f196da883-4" vertex="1">
                    <mxGeometry x="53" y="35" width="157" height="65" as="geometry"/>
                </mxCell>
                <mxCell id="77e6c97f196da883-13" value="LOGUIN CORRECTO" style="rhombus;whiteSpace=wrap;html=1;rounded=0;shadow=0;labelBackgroundColor=none;strokeWidth=1;fontFamily=Verdana;fontSize=8;align=center;" parent="77e6c97f196da883-4" vertex="1">
                    <mxGeometry x="85" y="250" width="80" height="60" as="geometry"/>
                </mxCell>
                <mxCell id="HAU2dzA1IoQsF7gN91ns-6" value="RECIBE RESPUESTA DE VERIFICACIÓN DE LA BBDD" style="rounded=1;whiteSpace=wrap;html=1;shadow=0;labelBackgroundColor=none;strokeWidth=1;fontFamily=Verdana;fontSize=8;align=center;" parent="77e6c97f196da883-4" vertex="1">
                    <mxGeometry x="75" y="130" width="100" height="60" as="geometry"/>
                </mxCell>
                <mxCell id="HAU2dzA1IoQsF7gN91ns-8" value="SI" style="text;html=1;align=center;verticalAlign=middle;whiteSpace=wrap;rounded=0;" parent="77e6c97f196da883-4" vertex="1">
                    <mxGeometry x="175" y="250" width="60" height="30" as="geometry"/>
                </mxCell>
                <mxCell id="77e6c97f196da883-18" value="MANDA GUARDAR EN BBDD INTENTO DE LOGUEO CON IP Y FECHA" style="rounded=1;whiteSpace=wrap;html=1;shadow=0;labelBackgroundColor=none;strokeWidth=1;fontFamily=Verdana;fontSize=8;align=center;" parent="77e6c97f196da883-4" vertex="1">
                    <mxGeometry x="75" y="370" width="100" height="60" as="geometry"/>
                </mxCell>
                <mxCell id="HAU2dzA1IoQsF7gN91ns-11" value="" style="endArrow=classic;html=1;rounded=0;entryX=0.5;entryY=0;entryDx=0;entryDy=0;exitX=0.5;exitY=1;exitDx=0;exitDy=0;" parent="77e6c97f196da883-4" source="77e6c97f196da883-13" target="77e6c97f196da883-18" edge="1">
                    <mxGeometry width="50" height="50" relative="1" as="geometry">
                        <mxPoint x="80" y="310" as="sourcePoint"/>
                        <mxPoint x="130" y="260" as="targetPoint"/>
                    </mxGeometry>
                </mxCell>
                <mxCell id="HAU2dzA1IoQsF7gN91ns-13" value="NO" style="text;html=1;align=center;verticalAlign=middle;whiteSpace=wrap;rounded=0;" parent="77e6c97f196da883-4" vertex="1">
                    <mxGeometry x="110" y="310" width="60" height="30" as="geometry"/>
                </mxCell>
                <mxCell id="77e6c97f196da883-22" value="RECIBE NOTIFICACIÓN DE GUARDADO" style="rounded=1;whiteSpace=wrap;html=1;shadow=0;labelBackgroundColor=none;strokeWidth=1;fontFamily=Verdana;fontSize=8;align=center;" parent="77e6c97f196da883-4" vertex="1">
                    <mxGeometry x="75" y="490" width="100" height="60" as="geometry"/>
                </mxCell>
                <mxCell id="77e6c97f196da883-5" value="BASE DE DATOS" style="swimlane;html=1;startSize=20;" parent="77e6c97f196da883-1" vertex="1">
                    <mxGeometry x="620" y="20" width="220" height="560" as="geometry"/>
                </mxCell>
                <mxCell id="HAU2dzA1IoQsF7gN91ns-3" value="RECIBE SOLICITUD PARA VERIFICAR SI ESTA REGISTRADO (COMPARANDO HASH CON EL ALMACENADO)" style="rounded=1;whiteSpace=wrap;html=1;shadow=0;labelBackgroundColor=none;strokeWidth=1;fontFamily=Verdana;fontSize=8;align=center;" parent="77e6c97f196da883-5" vertex="1">
                    <mxGeometry x="60" y="32.5" width="120" height="70" as="geometry"/>
                </mxCell>
                <mxCell id="77e6c97f196da883-21" value="BBDD GUARDA INTENTO DE LOGUEO DE USUARIO E IP EN TABLA INTENTOS FALLIDOS LOGUEO" style="rounded=1;whiteSpace=wrap;html=1;shadow=0;labelBackgroundColor=none;strokeWidth=1;fontFamily=Verdana;fontSize=8;align=center;" parent="77e6c97f196da883-5" vertex="1">
                    <mxGeometry x="70" y="370" width="100" height="60" as="geometry"/>
                </mxCell>
                <mxCell id="77e6c97f196da883-6" value="SISTEMA" style="swimlane;html=1;startSize=20;" parent="77e6c97f196da883-1" vertex="1">
                    <mxGeometry x="840" y="20" width="170" height="560" as="geometry"/>
                </mxCell>
                <mxCell id="77e6c97f196da883-15" value="ENTRA ALSISTEMA" style="rounded=1;whiteSpace=wrap;html=1;shadow=0;labelBackgroundColor=none;strokeWidth=1;fontFamily=Verdana;fontSize=8;align=center;" parent="77e6c97f196da883-6" vertex="1">
                    <mxGeometry x="40" y="250" width="100" height="60" as="geometry"/>
                </mxCell>
                <mxCell id="77e6c97f196da883-29" style="edgeStyle=orthogonalEdgeStyle;rounded=1;html=1;labelBackgroundColor=none;startArrow=none;startFill=0;startSize=5;endArrow=classicThin;endFill=1;endSize=5;jettySize=auto;orthogonalLoop=1;strokeWidth=1;fontFamily=Verdana;fontSize=8;entryX=0;entryY=0.5;entryDx=0;entryDy=0;" parent="77e6c97f196da883-1" source="77e6c97f196da883-12" target="HAU2dzA1IoQsF7gN91ns-3" edge="1">
                    <mxGeometry relative="1" as="geometry"/>
                </mxCell>
                <mxCell id="HAU2dzA1IoQsF7gN91ns-2" value="" style="edgeStyle=orthogonalEdgeStyle;rounded=0;orthogonalLoop=1;jettySize=auto;html=1;" parent="77e6c97f196da883-1" source="77e6c97f196da883-8" target="77e6c97f196da883-9" edge="1">
                    <mxGeometry relative="1" as="geometry"/>
                </mxCell>
                <mxCell id="HAU2dzA1IoQsF7gN91ns-7" style="edgeStyle=orthogonalEdgeStyle;rounded=1;html=1;labelBackgroundColor=none;startArrow=none;startFill=0;startSize=5;endArrow=classicThin;endFill=1;endSize=5;jettySize=auto;orthogonalLoop=1;strokeColor=#000000;strokeWidth=1;fontFamily=Verdana;fontSize=8;fontColor=#000000;exitX=0.433;exitY=0.993;exitDx=0;exitDy=0;exitPerimeter=0;entryX=1;entryY=0.5;entryDx=0;entryDy=0;" parent="77e6c97f196da883-1" source="HAU2dzA1IoQsF7gN91ns-3" target="HAU2dzA1IoQsF7gN91ns-6" edge="1">
                    <mxGeometry relative="1" as="geometry">
                        <mxPoint x="825" y="180" as="sourcePoint"/>
                        <mxPoint x="635" y="290" as="targetPoint"/>
                    </mxGeometry>
                </mxCell>
                <mxCell id="77e6c97f196da883-37" style="edgeStyle=orthogonalEdgeStyle;rounded=1;html=1;labelBackgroundColor=none;startArrow=none;startFill=0;startSize=5;endArrow=classicThin;endFill=1;endSize=5;jettySize=auto;orthogonalLoop=1;strokeWidth=1;fontFamily=Verdana;fontSize=8" parent="77e6c97f196da883-1" source="77e6c97f196da883-18" target="77e6c97f196da883-21" edge="1">
                    <mxGeometry relative="1" as="geometry"/>
                </mxCell>
                <mxCell id="77e6c97f196da883-38" style="edgeStyle=orthogonalEdgeStyle;rounded=1;html=1;labelBackgroundColor=none;startArrow=none;startFill=0;startSize=5;endArrow=classicThin;endFill=1;endSize=5;jettySize=auto;orthogonalLoop=1;strokeWidth=1;fontFamily=Verdana;fontSize=8;entryX=1;entryY=0.5;entryDx=0;entryDy=0;" parent="77e6c97f196da883-1" source="77e6c97f196da883-21" target="77e6c97f196da883-22" edge="1">
                    <mxGeometry relative="1" as="geometry">
                        <Array as="points">
                            <mxPoint x="740" y="540"/>
                        </Array>
                    </mxGeometry>
                </mxCell>
                <mxCell id="HAU2dzA1IoQsF7gN91ns-14" style="edgeStyle=orthogonalEdgeStyle;rounded=0;orthogonalLoop=1;jettySize=auto;html=1;exitX=0;exitY=0;exitDx=0;exitDy=0;entryX=0;entryY=0.027;entryDx=0;entryDy=0;entryPerimeter=0;" parent="77e6c97f196da883-1" source="77e6c97f196da883-2" target="77e6c97f196da883-2" edge="1">
                    <mxGeometry relative="1" as="geometry"/>
                </mxCell>
                <mxCell id="HAU2dzA1IoQsF7gN91ns-17" style="edgeStyle=orthogonalEdgeStyle;rounded=0;orthogonalLoop=1;jettySize=auto;html=1;entryX=1;entryY=0.5;entryDx=0;entryDy=0;" parent="77e6c97f196da883-1" source="77e6c97f196da883-22" target="HAU2dzA1IoQsF7gN91ns-15" edge="1">
                    <mxGeometry relative="1" as="geometry"/>
                </mxCell>
                <mxCell id="HAU2dzA1IoQsF7gN91ns-20" value="" style="edgeStyle=orthogonalEdgeStyle;rounded=0;orthogonalLoop=1;jettySize=auto;html=1;" parent="77e6c97f196da883-1" source="HAU2dzA1IoQsF7gN91ns-15" target="HAU2dzA1IoQsF7gN91ns-19" edge="1">
                    <mxGeometry relative="1" as="geometry"/>
                </mxCell>
                <mxCell id="HAU2dzA1IoQsF7gN91ns-9" value="" style="endArrow=classic;html=1;rounded=0;exitX=0.5;exitY=1;exitDx=0;exitDy=0;" parent="1" source="HAU2dzA1IoQsF7gN91ns-6" edge="1">
                    <mxGeometry width="50" height="50" relative="1" as="geometry">
                        <mxPoint x="520" y="370" as="sourcePoint"/>
                        <mxPoint x="565" y="290" as="targetPoint"/>
                    </mxGeometry>
                </mxCell>
            </root>
        </mxGraphModel>
    </diagram>
</mxfile>